HIERARCHY
ROOT hip
{
	OFFSET 0.000000 0.000000 0.000000 
	CHANNELS 6 Xposition Yposition Zposition Xrotation Zrotation Yrotation
	JOINT abdomen
	{
		OFFSET 0.000000 3.402643 0.000000 
		CHANNELS 3 Xrotation Zrotation Yrotation
		JOINT chest
		{
			OFFSET 0.000000 8.438565 -0.680529 
			CHANNELS 3 Xrotation Zrotation Yrotation
			JOINT neck
			{
				OFFSET 0.000000 10.207942 -0.272212 
				CHANNELS 3 Xrotation Zrotation Yrotation
				JOINT head
				{
					OFFSET 0.000000 3.130431 0.000000 
					CHANNELS 3 Xrotation Zrotation Yrotation
					End Site
					{
						OFFSET 0.000000 3.130435 0.000000 
					}
				}
			}
			JOINT lCollar
			{
				OFFSET 3.470700 6.669187 -0.816635 
				CHANNELS 3 Yrotation Zrotation Xrotation
				JOINT lShldr
				{
					OFFSET 3.198488 0.000000 0.000000 
					CHANNELS 3 Zrotation Yrotation Xrotation
					JOINT lForeArm
					{
						OFFSET 10.139888 0.000000 0.000000 
						CHANNELS 3 Yrotation Zrotation Xrotation
						JOINT lHand
						{
							OFFSET 8.370511 0.000000 0.000000 
							CHANNELS 3 Zrotation Yrotation Xrotation
							End Site
							{
								OFFSET 4.083176 0.000000 0.000000 
							}
						}
					}
				}
			}
			JOINT rCollar
			{
				OFFSET -3.470700 6.669187 -0.816635 
				CHANNELS 3 Yrotation Zrotation Xrotation
				JOINT rShldr
				{
					OFFSET -3.198488 0.000000 0.000000 
					CHANNELS 3 Zrotation Yrotation Xrotation
					JOINT rForeArm
					{
						OFFSET -10.139888 0.000000 0.000000 
						CHANNELS 3 Yrotation Zrotation Xrotation
						JOINT rHand
						{
							OFFSET -8.370511 0.000000 0.000000 
							CHANNELS 3 Zrotation Yrotation Xrotation
							End Site
							{
								OFFSET -4.083176 0.000000 0.000000 
							}
						}
					}
				}
			}
		}
	}
	JOINT lThigh
	{
		OFFSET 5.308129 -1.633274 1.361059 
		CHANNELS 3 Xrotation Zrotation Yrotation
		JOINT lShin
		{
			OFFSET -2.041588 -20.007561 0.000000 
			CHANNELS 3 Xrotation Zrotation Yrotation
			JOINT lFoot
			{
				OFFSET 0.000000 -19.190928 -1.224953 
				CHANNELS 3 Xrotation Yrotation Zrotation
				End Site
				{
					OFFSET 0.000000 -2.449906 4.627600 
				}
			}
		}
	}
	JOINT rThigh
	{
		OFFSET -5.308129 -1.633274 1.361059 
		CHANNELS 3 Xrotation Zrotation Yrotation
		JOINT rShin
		{
			OFFSET 2.041588 -20.007561 0.000000 
			CHANNELS 3 Xrotation Zrotation Yrotation
			JOINT rFoot
			{
				OFFSET 0.000000 -19.190928 -1.224953 
				CHANNELS 3 Xrotation Yrotation Zrotation
				End Site
				{
					OFFSET 0.000000 -2.449906 4.627600 
				}
			}
		}
	}
}
MOTION
Frames: 16
Frame Time: 0.033333
0.097380 37.906193 57.886806 -23.027342 0.175781 168.574265 22.167971 -15.966799 5.456298 -9.287109 -6.718750 12.783204 -24.492189 6.142579 -8.857422 20.888672 5.683594 -6.971689 8.261718 0.605469 -0.107422 -63.486328 14.560548 -9.062501 -120.205070 -3.193360 -42.987736 10.419946 -118.632820 -7.889430 9.746094 -19.033201 0.888672 59.189457 47.851563 14.128336 46.230469 3.613281 -57.471321 -7.509767 -17.958984 1.611328 -79.185570 12.470450 -10.449684 58.073177 0.170893 -3.516408 -9.760171 -16.914730 -10.272064 0.321931 -3.133573 -19.118425 45.818810 0.104729 2.550857 -15.323743 -26.849545 -0.474361 
0.541041 37.954453 57.444363 -23.564453 0.527344 171.552734 21.269531 -17.675781 6.745081 -8.769531 -7.255858 14.735095 -25.810547 6.015625 -11.845703 20.703127 6.914062 -9.774215 8.964845 -0.087891 -0.009751 -63.203129 17.041016 -3.095703 -127.656250 -3.144531 -39.286575 7.968754 -118.466805 -5.760538 11.025392 -21.210939 1.058220 58.916016 55.224609 27.136929 45.781254 3.320313 -43.223221 -4.697266 -17.919922 0.664063 -79.413872 10.000393 -12.211329 57.712646 -0.187400 -3.688181 -10.463268 -16.483908 -10.375104 2.193462 -1.177479 -19.939663 42.130733 0.104746 2.376803 -14.568305 -28.073244 -0.712236 
0.839795 37.860626 57.103603 155.742188 179.121094 -5.449069 20.458984 -18.994141 8.590570 -8.769531 -7.255858 16.844471 -27.626953 4.492188 -14.530484 20.175783 7.607422 -12.567065 9.482422 -1.015625 -0.205078 -62.148438 19.863283 1.425781 -135.097656 -3.164063 -38.349609 9.560571 -118.740227 -7.127705 11.787109 -22.509766 1.162109 53.867188 61.884766 31.981268 48.281246 3.007812 -29.013674 -2.128906 -14.619141 -0.087891 -79.902008 7.559741 -13.249589 57.712284 -0.186956 -3.697595 -11.029333 -16.826059 -10.425836 3.773386 0.332217 -21.295238 39.153961 0.358529 2.322167 -13.542606 -28.451359 -0.525359 
1.007484 37.637939 56.876003 155.214844 178.935547 -2.988100 20.009768 -19.980471 9.986898 -9.111328 -6.728516 18.416826 -29.248049 2.158203 -16.582033 19.472656 8.134767 -15.166017 10.361328 -1.738281 -0.244141 -60.761719 22.568361 3.402187 -141.337891 -3.310547 -39.580082 11.591815 -119.082024 -8.719472 12.167969 -23.808596 1.097693 45.351566 67.060547 28.329300 52.041016 2.626953 -21.562500 -1.962891 -9.521484 -0.078125 -80.911629 5.635261 -12.945458 58.387478 0.311043 -4.171731 -11.616681 -17.778481 -10.675564 4.956738 1.355907 -22.155787 36.854973 0.775782 2.367513 -12.849794 -29.263079 -0.362966 
1.061013 37.329140 56.757313 154.863281 179.121094 -1.054538 19.355467 -20.351561 11.162110 -9.628906 -6.718750 19.451984 -30.673826 0.087891 -17.783188 18.603516 8.652344 -17.059078 11.230469 -2.089844 -0.146484 -60.214844 23.701174 2.382812 -145.585938 -3.164063 -41.356884 12.822287 -118.847656 -9.862070 11.992188 -24.667969 1.224779 34.697266 71.015625 15.634764 55.976566 2.460938 -18.223074 -1.240234 -6.171875 -0.206128 -82.304527 4.570301 -11.727034 59.299080 0.326679 -3.827349 -11.662623 -19.409842 -11.107396 5.519836 1.695986 -22.616135 35.973621 0.775710 2.139835 -13.074054 -29.149769 -0.352377 
1.007239 36.982857 56.776913 154.511734 179.472656 0.000090 18.564453 -20.595703 13.212892 -9.804688 -6.191407 18.387617 -32.099609 -1.406250 -18.515625 18.427734 8.828124 -18.281250 11.933594 -2.304688 -0.253513 -60.751949 22.763674 -0.191533 -147.695313 -3.261719 -41.953125 12.861328 -118.310539 -10.174613 11.738281 -25.908201 1.181641 30.371096 71.572266 2.782703 61.054684 2.441406 -17.910160 -0.195313 -3.535156 -0.146484 -83.641205 3.857457 -10.396197 60.516773 0.585926 -3.748089 -10.900779 -20.151508 -11.337346 5.707536 1.521334 -22.791664 36.334209 0.765981 2.173920 -14.668035 -29.367044 -0.921570 
0.846164 36.644295 56.940929 154.511734 179.824219 0.351592 17.822266 -20.048828 13.203124 -9.794922 -6.015625 18.387646 -33.330078 -2.275391 -18.418354 18.603516 9.003906 -18.465269 12.460938 -2.304688 -0.234375 -61.855469 21.552732 -2.587891 -149.345703 -3.359375 -41.601566 13.671881 -118.398430 -10.780076 11.562499 -26.767578 1.298828 29.365234 71.025391 -6.201172 65.800781 2.421875 -17.812502 -0.205078 1.738282 -0.146187 -84.766655 3.692449 -8.977304 61.582516 0.155838 -4.039060 -10.512730 -21.325069 -11.009714 5.657688 1.004241 -23.036301 36.850517 0.668136 2.498782 -16.614277 -29.575754 -1.986857 
0.580850 36.344070 57.240540 154.687515 -179.482422 -0.361416 17.363281 -18.789064 12.115994 -10.322265 -5.830078 19.247055 -34.199219 -2.392578 -17.881268 19.296875 8.837891 -17.968752 12.470703 -2.089844 -0.107422 -62.812504 19.863281 -4.580078 -150.507813 -3.212891 -40.966251 15.195313 -119.111328 -11.981189 11.455077 -26.738279 1.445312 34.404297 68.916016 -8.496748 71.503906 2.597656 -21.044922 -0.205078 1.914062 -0.146484 -85.774963 3.682285 -8.382665 62.445812 0.409879 -3.779123 -9.806586 -20.495340 -11.027375 5.543884 -0.019537 -23.711205 37.740379 0.769262 2.224566 -19.336208 -29.539495 -3.620155 
0.213256 36.123096 57.646477 155.214844 -178.769531 -2.470913 17.158205 -17.792971 11.881781 -10.839844 -5.468750 18.525391 -34.521484 -2.050781 -16.318708 20.175783 8.310547 -16.434135 12.294922 -1.748047 -0.185249 -63.281250 17.451172 -6.337891 -150.859375 -3.183594 -39.774849 16.210962 -119.433586 -12.957726 10.996093 -25.136719 1.201172 43.242191 64.511719 -4.375951 77.929688 2.802734 -24.960938 -0.566406 2.265629 -0.165628 -86.010742 4.736413 -7.881066 63.309944 0.683714 -3.985712 -9.458779 -19.827038 -10.429365 5.237327 -2.302367 -23.471565 39.497162 0.748581 2.314355 -20.707743 -28.085041 -4.052159 
-0.236774 36.012123 58.156155 156.093750 -178.066406 -5.459314 16.962891 -16.357422 11.403502 -11.533203 -4.755859 17.440596 -34.824219 -1.308594 -14.277567 20.878906 7.265625 -14.178453 12.294922 -1.025391 -0.165841 -63.671879 15.351563 -8.798827 -150.625000 -3.261719 -37.939453 14.482432 -118.847656 -11.375740 11.289063 -22.304689 1.083984 54.023438 56.250000 2.547180 84.560547 2.949219 -27.959486 -0.039063 2.441406 -0.136719 -85.935440 6.142335 -8.223599 64.031357 0.179969 -4.144531 -8.438618 -17.952074 -9.757634 3.550376 -4.985427 -22.753132 44.042912 0.094393 2.467222 -21.553410 -25.495916 -3.050879 
-0.706035 35.995831 58.753662 -22.685547 -2.285156 170.683197 16.962889 -14.863280 10.771484 -12.207031 -3.164063 16.190868 -34.746094 -0.654297 -11.347656 21.416016 6.035156 -11.396485 12.304688 -0.468750 -0.097656 -63.427731 13.925781 -12.946868 -149.921875 -3.046875 -37.079556 11.835953 -117.861336 -9.188320 11.787110 -18.417969 0.940585 60.605469 42.275391 6.676493 91.103516 3.115234 -36.220699 1.904297 2.792969 -0.019055 -84.876282 8.417958 -8.252215 63.678333 0.433698 -3.995619 -7.596036 -16.721825 -9.392394 1.199444 -8.980405 -21.696856 49.858425 0.025721 2.700875 -21.788692 -20.871124 -1.626300 
-1.087960 36.044456 59.457619 -21.279297 -2.119127 167.158279 17.177734 -12.880860 9.743917 -12.890625 -1.396484 14.579898 -34.306641 0.703125 -8.486209 21.601561 4.638672 -8.242188 12.480469 0.634766 0.009657 -61.845703 12.216798 -19.091795 -148.330078 -3.173828 -37.284615 6.679707 -116.279297 -4.706022 11.738281 -13.457031 0.517578 62.509769 25.917969 7.894894 93.046875 3.437500 -42.490231 4.199219 5.039062 0.458984 -83.779251 10.878861 -8.379077 62.951149 0.764538 -3.584673 -6.300458 -16.233969 -9.098494 -1.281008 -12.034223 -20.430405 55.986153 -0.618675 2.834825 -21.740894 -16.333075 0.466334 
-1.320938 36.123222 60.286263 -19.521484 -1.767578 163.828125 17.236326 -11.054687 8.642579 -13.037110 0.712891 12.812501 -33.330078 1.845703 -5.946950 21.962893 3.408203 -5.438872 12.470703 2.255859 0.009766 -58.945313 10.595703 -26.580233 -145.742188 -3.183594 -37.313911 -3.574219 -114.697266 4.560546 10.986327 -8.818359 0.312500 62.626953 10.332031 5.783003 90.283203 3.505859 -48.330078 7.099609 7.744141 1.163427 -81.785736 14.208712 -7.561706 61.055691 0.756612 -3.839160 -4.976270 -16.777903 -8.754038 -2.676819 -14.524230 -19.427387 60.378567 -0.784945 3.109431 -22.571802 -15.328609 0.758431 
-1.385857 36.223907 61.281498 -17.763672 -1.064453 160.839844 17.128906 -9.394530 7.519532 -13.369140 2.470703 11.221125 -31.132813 3.310547 -3.612718 22.148439 2.177735 -2.978145 12.607423 4.257813 0.096931 -55.234375 9.423828 -34.568714 -143.017578 -3.173828 -37.851025 -16.357424 -113.837891 16.425779 9.462891 -4.716797 0.088694 61.230469 -3.105469 2.363281 88.066406 3.564453 -52.392578 7.578125 6.210938 0.839844 -79.510887 17.713007 -6.924375 58.581520 0.431214 -3.603669 -2.562899 -17.540562 -8.252769 -2.325430 -15.676032 -17.561384 62.676815 -0.638191 2.922340 -22.245262 -18.556337 -0.616046 
-1.331962 36.365139 62.468067 -15.820313 -0.537109 157.314423 16.455078 -7.900391 6.893189 -13.525390 3.876953 10.352223 -27.011719 4.355469 -1.943359 21.992186 0.419922 -0.693359 13.242188 6.640625 0.195312 -50.722660 8.730469 -41.806641 -139.990234 -3.193359 -39.384220 -26.982426 -113.847656 26.308592 7.548829 -1.689453 0.049116 58.300781 -13.115233 -0.664062 84.648438 3.701171 -54.395157 6.123047 1.582031 0.049098 -76.528625 21.571644 -6.644122 55.450096 -0.109888 -3.507336 0.347807 -17.521486 -7.356118 -0.929298 -16.955494 -15.620051 63.187843 -0.970372 3.096678 -19.734875 -23.043478 -1.299928 
-1.221352 36.576435 63.854778 -13.359375 -0.185547 153.095703 15.722656 -6.455078 7.000856 -13.867188 5.117187 9.981339 -20.585938 4.755859 0.313310 21.660156 -1.865234 0.898438 13.818360 9.072267 0.418382 -46.210938 8.466797 -47.664574 -136.630859 -3.242188 -40.829521 -35.654293 -114.804688 34.502853 5.791016 0.078125 -0.009766 54.082031 -19.716797 -1.106810 78.232422 3.447266 -51.406250 5.771484 1.230469 0.029297 -72.561707 25.457235 -6.315517 51.409664 -0.267569 -3.405767 3.336210 -17.068007 -6.299548 0.993574 -18.155190 -12.689495 61.965790 -0.794600 2.994920 -16.021849 -26.238890 -0.900032 
